<svg width="25" height="24" viewBox="0 0 25 24" fill="none" xmlns="http://www.w3.org/2000/svg">
<g clip-path="url(#clip0_287_72318)">
<path fill-rule="evenodd" clip-rule="evenodd" d="M20.0981 1.6001H3.3008V2.8001H2.1008V1.6001H2.10039V2.8001H0.900391V2.80025H2.10039V4.00025H0.900391V20.7999H2.10039V21.9999H0.900391V22.0002L2.10039 22.0002V23.2001H2.1008V22.0002L3.3008 22.0002V23.2001H20.0981V22.0002H21.2981V23.2001H21.3026V22.0002H22.5004V21.9999H21.3026V20.7999L22.5004 20.7999V18.4001H24.9004L24.9004 18.3999H23.7004V17.2002V17.1999V16.0002H24.9004V8.8001H23.7004L23.7004 7.6001H24.9004V7.59982H23.7004L23.7004 6.4001H23.7V7.59982H22.5V6.39982H22.5004V4.00025H21.3026L21.3026 2.80025H22.5004V2.8001H21.3026L21.3026 1.6001H21.2981V2.8001H20.0982L20.0981 1.6001ZM20.1004 18.4001V20.8001H3.30039V4.0001H20.1004V6.4001H10.5004V18.4001H20.1004ZM12.9004 16.0001V8.8001H22.5004V16.0001H12.9004ZM17.7004 11.2001H15.3004V13.6001H17.7004V11.2001ZM22.5 18.3999H23.7V17.1999H22.5L22.5 18.3999Z" fill="#FF8700"/>
</g>
<defs>
<clipPath id="clip0_287_72318">
<rect width="24" height="24" fill="white" transform="translate(0.5)"/>
</clipPath>
</defs>
</svg>
